<?xml version="1.0" encoding="UTF-8"?>
<svg id="Layer_2" data-name="Layer 2" xmlns="http://www.w3.org/2000/svg" viewBox="0 0 106 81">
  <defs>
    <style>
      .cls-1 {
        fill: #ffc470;
      }

      .cls-2 {
        fill: #262525;
      }

      .cls-2, .cls-3 {
        stroke: #262525;
        stroke-linecap: round;
        stroke-linejoin: round;
        stroke-width: 6px;
      }

      .cls-3 {
        fill: #fff;
      }
    </style>
  </defs>
  <g id="ap_2" data-name="ap 2">
    <g>
      <g>
        <g>
          <rect class="cls-3" x="3" y="9.59" width="100" height="68.41"/>
          <g>
            <path class="cls-2" d="m103,14.34H3v-4.51c0-1.09.88-1.97,1.97-1.97h59.17l2.4-2.75c1.17-1.34,2.87-2.11,4.65-2.11h29.83c1.09,0,1.97.88,1.97,1.97v9.37Z"/>
            <rect class="cls-3" x="7.23" y="10.09" width="92.55" height="2.94" rx="1.47" ry="1.47"/>
          </g>
        </g>
        <rect class="cls-1" x="6" y="17.5" width="94" height="58"/>
      </g>
      <g>
        <path d="m50.3,29.35l-4.24,14.64h-2.14l-3.4-11.78-3.53,11.78-2.12.02-4.09-14.66h2.04l3.19,12.41,3.53-12.41h2.14l3.36,12.37,3.21-12.37h2.06Z"/>
        <path d="m54.31,30.91v4.89h5.33v1.57h-5.33v5.04h5.96v1.57h-7.88v-14.66h7.88v1.58h-5.96Z"/>
        <path d="m71.96,37.1c.44.35.79.78,1.05,1.3.26.52.39,1.07.39,1.66,0,.74-.19,1.41-.57,2.01-.38.59-.93,1.06-1.65,1.41-.72.34-1.57.51-2.55.51h-5.46v-14.64h5.25c.99,0,1.84.17,2.54.49.7.33,1.22.77,1.58,1.33.35.56.52,1.19.52,1.89,0,.87-.23,1.59-.7,2.15-.47.57-1.09.98-1.86,1.23.53.08,1.02.3,1.46.65Zm-6.88-1.43h3.21c.9,0,1.59-.21,2.08-.63.49-.42.73-1,.73-1.74s-.25-1.32-.73-1.74c-.49-.42-1.2-.63-2.12-.63h-3.17v4.75Zm5.61,6.07c.53-.45.8-1.07.8-1.87s-.28-1.45-.84-1.92c-.56-.47-1.31-.7-2.25-.7h-3.32v5.17h3.38c.95,0,1.69-.22,2.23-.67Z"/>
        <path d="m25.57,51.25c1.17.6,2.07,1.45,2.69,2.55.62,1.11.93,2.41.93,3.91s-.31,2.8-.93,3.9c-.62,1.1-1.52,1.94-2.69,2.52-1.17.58-2.55.87-4.15.87h-4.56v-14.64h4.56c1.6,0,2.98.3,4.15.89Zm.18,10.67c.99-1,1.49-2.4,1.49-4.21s-.5-3.24-1.5-4.26c-1-1.02-2.44-1.53-4.32-1.53h-2.65v11.51h2.65c1.89,0,3.33-.5,4.33-1.5Z"/>
        <path d="m33.63,51.91v4.89h5.33v1.57h-5.33v5.04h5.96v1.57h-7.88v-14.66h7.88v1.58h-5.96Z"/>
        <path d="m44.54,64.62c-.76-.34-1.36-.82-1.79-1.43-.43-.61-.66-1.31-.67-2.11h2.04c.07.69.35,1.26.85,1.73.5.47,1.22.7,2.17.7s1.63-.23,2.15-.68c.53-.46.79-1.04.79-1.75,0-.56-.15-1.01-.46-1.37-.31-.35-.69-.62-1.16-.8s-1.08-.38-1.87-.59c-.97-.25-1.74-.5-2.32-.76s-1.08-.65-1.49-1.19c-.41-.54-.62-1.26-.62-2.17,0-.8.2-1.5.61-2.12s.98-1.09,1.71-1.43c.74-.34,1.58-.5,2.53-.5,1.37,0,2.5.34,3.37,1.03.87.69,1.37,1.6,1.48,2.73h-2.1c-.07-.56-.36-1.05-.88-1.48-.52-.43-1.2-.64-2.06-.64-.8,0-1.45.21-1.95.62-.5.41-.76.99-.76,1.73,0,.53.15.97.45,1.3s.67.59,1.11.77c.44.18,1.06.38,1.86.6.97.27,1.74.53,2.33.79s1.09.66,1.51,1.2.63,1.27.63,2.19c0,.71-.19,1.39-.57,2.02-.38.63-.94,1.14-1.68,1.53s-1.62.59-2.62.59-1.83-.17-2.59-.51Z"/>
        <path d="m56.73,50.35v14.64h-1.91v-14.64h1.91Z"/>
        <path d="m71.07,54.59c-.41-.85-.99-1.52-1.76-1.98-.77-.47-1.67-.7-2.69-.7s-1.94.23-2.76.7c-.82.47-1.46,1.14-1.93,2.02-.47.88-.7,1.89-.7,3.04s.23,2.16.7,3.02c.47.87,1.11,1.54,1.93,2.01.82.47,1.74.7,2.76.7,1.43,0,2.6-.43,3.53-1.28.92-.85,1.46-2.01,1.62-3.46h-5.84v-1.55h7.88v1.47c-.11,1.21-.49,2.31-1.13,3.31s-1.49,1.79-2.54,2.37-2.22.87-3.51.87c-1.36,0-2.6-.32-3.72-.96-1.12-.64-2.01-1.52-2.66-2.66-.65-1.13-.98-2.42-.98-3.84s.33-2.71.98-3.85c.65-1.14,1.54-2.03,2.66-2.67,1.12-.64,2.36-.96,3.72-.96,1.55,0,2.93.38,4.13,1.16,1.2.77,2.07,1.85,2.61,3.25h-2.29Z"/>
        <path d="m87.83,64.99h-1.91l-7.69-11.65v11.65h-1.91v-14.66h1.91l7.69,11.63v-11.63h1.91v14.66Z"/>
      </g>
    </g>
  </g>
</svg>